<svg xmlns="http://www.w3.org/2000/svg" viewBox="0 0 200 200" width="100%" height="100%">
  <rect width="200" height="200" rx="40" fill="#000000" />
  <g transform="translate(100, 75)">
    <!-- Apple Leaf -->
    <path d="M4 -38 C9 -46 16 -49 20 -48 C21 -40 16 -32 10 -28 C6 -24 -2 -25 4 -38 Z" fill="#FFFFFF" />
    <!-- Apple Body -->
    <path d="M22 -14 C16 -24 3 -24 -6 -17 C-15 -24 -27 -23 -34 -13 C-46 6 -37 36 -21 54 C-14 62 -5 70 5 70 C15 69 20 62 29 54 C45 36 51 9 40 -11 C34 -1 25 -8 22 -14 Z" fill="#FFFFFF" />
  </g>
  <text x="100" y="165" fill="#FFFFFF" font-family="-apple-system, BlinkMacSystemFont, 'Segoe UI', Roboto, sans-serif" font-weight="600" font-size="12" text-anchor="middle" letter-spacing="1.5" opacity="0.9">Premium Reseller</text>
</svg>
